<svg width="250" height="64" viewBox="0 0 250 64" fill="none" xmlns="http://www.w3.org/2000/svg">
<path fill-rule="evenodd" clip-rule="evenodd" d="M30.4518 0.688474L41.9281 7.31438L53.4044 13.9398C54.9942 14.8578 55.9039 16.4336 55.9039 18.27V31.5213V44.7727C55.9039 46.6086 54.9938 48.1848 53.4044 49.1024L41.9281 55.7283L30.4518 62.3542C28.862 63.2721 27.0423 63.2721 25.4521 62.3542L13.9758 55.7283L2.49944 49.1024C0.909644 48.1844 0 46.6086 0 44.7727V31.5213V18.27C0 16.434 0.910082 14.8578 2.49944 13.9398L13.9758 7.31438L25.4521 0.688474C27.0419 -0.229491 28.8616 -0.229491 30.4518 0.688474ZM11.0379 38.0425C11.3309 38.0425 11.6165 38.0754 11.8911 38.1376C11.1386 36.1939 10.7261 34.0808 10.7261 31.8717C10.7261 29.3009 11.2849 26.8601 12.2874 24.665L13.4541 25.3386C14.3787 25.8725 14.807 26.9332 14.5118 27.9589C14.1544 29.2014 13.963 30.514 13.963 31.8712C13.963 32.448 13.9976 33.0165 14.0651 33.5749L16.3902 32.6894C16.5015 34.7206 17.1584 36.7725 18.457 38.6465C19.2054 39.7269 20.3941 40.8696 21.6606 41.749L19.7678 43.2906C21.2332 44.361 22.9123 45.1563 24.729 45.6004C25.7691 45.8544 26.4782 46.758 26.4782 47.8288V49.1667C22.3277 48.7831 18.5997 46.9397 15.8139 44.1538C15.432 43.7724 15.0685 43.373 14.7233 42.9569C14.2578 44.5528 12.7841 45.7191 11.0379 45.7191C8.91775 45.7191 7.19919 44.0006 7.19919 41.8804C7.19919 39.7607 8.91775 38.0421 11.0379 38.0421V38.0425ZM33.6778 19.2514L33.3073 21.5516C31.4924 20.6319 29.3871 20.1751 27.115 20.3625C25.8051 20.4703 24.2214 20.9288 22.8265 21.5858L22.4477 19.2361C20.7383 19.9719 19.1647 21.0475 17.8381 22.4336C17.098 23.2075 15.9606 23.37 15.0334 22.8344L13.875 22.1656C16.2825 18.7627 19.7428 16.4564 23.5487 15.4368C24.2617 15.2458 24.9865 15.1 25.7188 15.0006C24.7925 14.2998 24.1942 13.1887 24.1942 11.9379C24.1942 9.81776 25.9128 8.0992 28.0325 8.0992C30.1527 8.0992 31.8712 9.81776 31.8712 11.9379C31.8712 13.1852 31.2761 14.2933 30.3546 14.9944C32.5387 15.2866 34.7031 16.0018 36.7295 17.1715C38.9561 18.457 40.7903 20.1615 42.19 22.1271L41.0233 22.8006C40.0988 23.3345 38.9658 23.1747 38.2252 22.4065C37.3278 21.4758 36.2868 20.6538 35.1113 19.9749C34.6418 19.7038 34.1635 19.463 33.6783 19.2514H33.6778ZM36.3612 43.2911L34.4951 41.7713C36.1987 40.6594 37.6471 39.0643 38.6207 37.0033C39.1821 35.8146 39.5776 34.2139 39.7059 32.6775L42.0635 33.5754C42.1305 33.0169 42.1655 32.4485 42.1655 31.8717C42.1655 30.5144 41.9741 29.2019 41.6167 27.9594C41.3216 26.9332 41.7499 25.8725 42.6744 25.3391L43.8411 24.6655C44.8436 26.861 45.4025 29.3013 45.4025 31.8721C45.4025 34.0637 44.9965 36.1602 44.2554 38.0912C44.4543 38.0592 44.6579 38.0425 44.8655 38.0425C46.9857 38.0425 48.7043 39.7611 48.7043 41.8808C48.7043 44.001 46.9857 45.7195 44.8655 45.7195C43.1908 45.7195 41.7665 44.6465 41.2423 43.1505C40.9462 43.4969 40.637 43.8319 40.3147 44.1538C37.5288 46.9397 33.8013 48.7835 29.6504 49.1667V47.8288C29.6504 46.7584 30.3598 45.8549 31.3996 45.6004C33.2162 45.1563 34.8954 44.361 36.3608 43.2906L36.3612 43.2911ZM21.8735 25.4135C22.1827 24.8236 23.8377 23.9004 24.7347 23.5557L23.4287 24.7684C22.7858 25.4556 22.5611 25.7722 21.8735 25.4135ZM28.1771 24.7132C28.6684 23.5894 31.5274 23.8342 31.7092 23.8881C32.1301 24.0129 32.0057 24.281 32.3583 24.4172C32.8461 24.6055 32.5413 24.1141 33.1313 24.4478C35.2554 25.6496 37.2717 28.9838 37.1425 32.4165C36.6709 31.7928 37.0041 31.5502 36.1803 30.909L34.4285 30.0047C35.0027 31.2117 35.1178 30.3073 35.6268 31.3146C33.8666 33.0502 33.7672 31.9356 33.5968 31.5958C33.3485 31.1017 32.2864 30.0033 32.3933 29.5925C32.4077 29.5369 32.4056 29.6372 32.4445 29.3959C32.4748 29.2102 32.4607 29.0035 32.4708 28.806L31.9089 29.0398C31.7057 28.703 31.5012 28.516 31.4035 28.114C32.1073 27.3611 32.6193 27.9756 33.1269 27.7141C33.0283 26.9678 32.5256 27.6528 32.5698 26.9302C32.5702 26.9236 32.5777 26.8978 32.5737 26.8824C32.2365 26.8303 31.8419 27.0686 31.5248 27.1763C31.386 27.577 31.5822 27.7054 31.2248 27.8718C30.7623 28.0873 30.7663 27.761 30.3664 28.1359C30.1711 27.6292 30.1466 27.3725 29.1533 27.0169C29.2001 27.5613 29.4436 27.553 29.7393 27.9143C29.7362 27.916 29.8431 28.0514 29.4988 27.9519C28.9571 27.7956 28.9417 26.7471 27.6865 27.623C27.3257 27.8749 26.9696 28.876 26.091 28.3982C25.7762 28.227 25.9115 27.8289 25.9522 27.4141C26.0481 27.3554 25.9338 27.3931 26.1629 27.316L26.8623 27.097C27.3502 26.73 26.6928 26.6875 27.1671 26.3175C27.4386 26.1055 27.7321 26.1173 27.9778 25.9163C28.368 25.5975 28.128 25.548 28.7727 25.396C29.0665 25.5852 29.2457 25.9198 29.639 25.8046C30.0979 25.6706 29.9749 25.2291 29.8746 24.8665C29.5395 25.001 29.547 25.1214 29.4038 25.3903C28.5007 25.283 29.2737 25.1091 28.3995 24.796C28.1092 24.6922 28.3829 24.8779 28.1775 24.7137L28.1771 24.7132ZM26.335 25.6999C26.3341 25.3045 26.2785 25.2861 26.4397 25.0224C26.8873 25.0518 26.7318 25.0675 26.9784 25.4131L27.2162 25.8567C26.97 26.0302 26.8435 26.0218 26.4725 26.091C26.3052 25.9391 26.3989 26.077 26.2724 25.8532C26.0906 26.007 25.9395 26.1957 25.9124 25.8992C25.8786 25.5305 26.0941 25.657 26.335 25.6995V25.6999ZM19.9101 28.5506L20.1795 28.6137C19.9167 29.0657 19.6872 29.4252 19.3832 29.9276C18.9939 30.5709 19.1713 30.9253 19.0075 31.6041C18.926 29.7362 19.8343 27.7203 20.7676 26.6398C20.6862 27.2718 21.1425 27.4172 20.7309 27.8678C20.433 28.1937 20.2206 28.1324 19.9097 28.5506H19.9101ZM19.2159 34.0593C19.7989 34.2612 20.5981 34.8428 20.889 35.3973C21.1539 35.9031 21.1136 35.9938 21.6615 36.2254C23.1374 36.8491 22.5882 36.8539 22.4358 37.7833C22.3491 38.3128 22.6894 38.509 22.1617 38.6136C21.6882 38.7078 21.0676 37.8341 20.8136 37.4732C20.0253 36.3533 19.6202 35.611 19.2164 34.0589L19.2159 34.0593ZM33.4856 37.8783C33.3187 37.5617 33.4847 37.1517 33.6371 36.7698C33.7808 36.4098 33.7742 36.5583 34.0094 36.3538C34.2288 36.1628 34.2043 36.1033 34.3891 35.9101C34.4368 36.9065 34.0694 37.5993 33.4856 37.8783Z" fill="white"/>
<path fill-rule="evenodd" clip-rule="evenodd" d="M39.9421 31.4348C39.798 28.3774 38.4995 25.6222 36.4726 23.5953C35.8739 22.9966 35.2113 22.4614 34.4961 22.0002L34.6349 21.1396C35.623 21.7274 36.5291 22.4426 37.3275 23.2708C37.4304 23.3776 37.5386 23.4766 37.6512 23.5677C39.5852 25.7641 40.7764 28.6305 40.8321 31.7738L39.9421 31.4348Z" fill="#ED2E38"/>
<path fill-rule="evenodd" clip-rule="evenodd" d="M22.6158 42.5771C24.2481 43.4198 26.1002 43.8959 28.064 43.8959C30.0274 43.8959 31.88 43.4198 33.5122 42.5771L34.2388 43.1688C33.2543 43.711 32.2005 44.1227 31.1043 44.3907C30.9966 44.417 30.891 44.4481 30.7881 44.4836C29.9105 44.6741 28.9991 44.7748 28.0644 44.7748C27.1298 44.7748 26.2184 44.6741 25.3408 44.4836C25.2379 44.4481 25.1323 44.417 25.0241 44.3907C23.9275 44.1227 22.8742 43.711 21.8896 43.1688L22.6162 42.5771H22.6158Z" fill="#ED2E38"/>
<path fill-rule="evenodd" clip-rule="evenodd" d="M21.6319 22.0004C20.9167 22.4611 20.254 22.9963 19.6554 23.5955C17.6285 25.6223 16.3299 28.3775 16.1858 31.4349L15.2959 31.7739C15.3528 28.5685 16.5901 25.6512 18.592 23.4387C18.6419 23.3922 18.691 23.3441 18.7383 23.2941C19.5524 22.4432 20.4787 21.7109 21.4891 21.1157L21.6319 22.0004Z" fill="#ED2E38"/>
<path fill-rule="evenodd" clip-rule="evenodd" d="M27.2522 28.9881C27.4668 29.8282 27.624 30.1238 28.7044 29.9017C29.2361 29.7922 30.0595 29.9981 30.5425 30.316C31.097 30.6813 31.2091 31.2669 31.4338 31.9203C31.6226 32.4695 32.0973 32.9521 32.4192 33.44L33.0542 33.4356C32.8414 34.4447 31.5109 34.997 31.612 36.13C31.7448 37.6133 31.0795 36.8986 30.7747 38.0136C30.5369 38.883 30.942 38.2076 30.2701 38.8782C29.7463 39.4011 29.7323 39.6499 28.2919 39.7821C28.2393 37.7885 27.2767 38.2221 27.6976 36.9998C28.0821 35.8821 27.2959 35.5339 27.1834 34.9777C27.1278 34.7035 27.1308 34.4228 27.0621 34.1092L26.4739 34.2463C26.1257 33.9743 26.4375 34.0549 26.0727 33.8753C25.0028 34.3006 24.0752 34.6996 23.1572 32.794C22.954 32.3723 22.9742 31.679 23.1213 31.2292C23.2851 30.7295 23.5632 30.659 23.8869 30.3966C24.2613 30.0931 24.295 29.6722 24.6165 29.4257C24.8521 29.2448 25.506 29.1949 25.8608 29.0665C26.5194 28.8278 26.5339 29.0398 27.253 28.9877L27.2522 28.9881Z" fill="#ED2E38"/>
<path d="M69.8942 30.3674C74.8523 30.3674 77.2572 27.8885 77.2572 24.9919C77.2572 18.6209 67.167 20.8312 67.167 17.6289C67.167 16.534 68.0841 15.6414 70.464 15.6414C72.0012 15.6414 73.6619 16.0877 75.2732 17.0048L76.5126 13.9553C74.9014 12.9388 72.67 12.4185 70.4885 12.4185C65.5549 12.4185 63.1754 14.8728 63.1754 17.8273C63.1754 24.2727 73.2652 22.0418 73.2652 25.2892C73.2652 26.3508 72.2986 27.1444 69.9183 27.1444C67.8358 27.1444 65.6543 26.4008 64.1915 25.3387L62.8281 28.3589C64.3649 29.5488 67.1416 30.3669 69.8937 30.3669L69.8942 30.3674Z" fill="white"/>
<path d="M92.8009 23.4504C92.8009 19.1615 89.7764 16.5337 85.8592 16.5337C81.7937 16.5337 78.7441 19.4093 78.7441 23.4009C78.7441 27.3675 81.7437 30.2681 86.355 30.2681C88.7599 30.2681 90.619 29.5245 91.8584 28.1116L89.8009 25.8806C88.8838 26.7482 87.8673 27.1696 86.454 27.1696C84.421 27.1696 83.0081 26.153 82.6363 24.4923H92.7265C92.751 24.17 92.8009 23.7486 92.8009 23.4508V23.4504ZM85.8842 19.4593C87.6194 19.4593 88.8838 20.5502 89.1566 22.2359H82.5868C82.8597 20.5253 84.124 19.4593 85.8842 19.4593Z" fill="white"/>
<path d="M101.825 30.2685C104.626 30.2685 106.832 29.029 107.799 26.8971L104.8 25.2608C104.081 26.5502 103.015 27.0954 101.8 27.0954C99.8416 27.0954 98.3048 25.7321 98.3048 23.4017C98.3048 21.0713 99.8416 19.7079 101.8 19.7079C103.015 19.7079 104.081 20.2782 104.8 21.5425L107.799 19.9313C106.832 17.7498 104.626 16.5349 101.825 16.5349C97.4863 16.5349 94.3877 19.386 94.3877 23.4021C94.3877 27.4182 97.4867 30.2693 101.825 30.2693V30.2685Z" fill="white"/>
<path d="M119.599 16.7321V23.3265C119.599 25.7808 118.311 26.9213 116.525 26.9213C114.815 26.9213 113.823 25.9297 113.823 23.6983V16.7321H109.956V24.2685C109.956 28.3836 112.311 30.2677 115.658 30.2677C117.294 30.2677 118.781 29.648 119.798 28.4826V30.0693H123.467V16.7317H119.599V16.7321Z" fill="white"/>
<path d="M130.755 18.4927V16.7326H127.062V30.0702H130.929V23.7732C130.929 21.2199 132.342 20.0545 134.474 20.0545C134.771 20.0545 135.019 20.079 135.342 20.104V16.5342C133.284 16.5342 131.697 17.2034 130.755 18.4927Z" fill="white"/>
<path d="M139.582 14.873C141.019 14.873 141.986 13.931 141.986 12.6421C141.986 11.4521 141.02 10.5596 139.582 10.5596C138.144 10.5596 137.177 11.5016 137.177 12.7161C137.177 13.931 138.144 14.873 139.582 14.873ZM137.648 30.0698H141.515V16.7322H137.648V30.0698Z" fill="white"/>
<path d="M152.671 26.6986C152.25 27.0209 151.68 27.1943 151.109 27.1943C150.068 27.1943 149.448 26.5746 149.448 25.4342V20.0048H152.77V17.0297H149.448V13.7822H145.581V17.0297H143.523V20.0048H145.581V25.4837C145.581 28.6571 147.416 30.2684 150.564 30.2684C151.754 30.2684 152.919 29.996 153.713 29.4257L152.671 26.6986Z" fill="white"/>
<path d="M165.166 16.7322L161.398 25.7809L157.654 16.7322H153.663L159.439 30.1688L159.39 30.2927C158.869 31.4827 158.274 31.9539 157.208 31.9539C156.439 31.9539 155.621 31.6316 155.027 31.1113L153.613 33.863C154.481 34.6316 155.969 35.0779 157.332 35.0779C159.737 35.0779 161.571 34.1113 162.86 30.8884L168.885 16.7326H165.166V16.7322Z" fill="white"/>
<path d="M72.4971 52.4826C75.5217 52.4826 78.0255 51.3917 79.6617 49.3836L77.0834 47.0037C75.9185 48.3671 74.4557 49.0613 72.72 49.0613C69.4726 49.0613 67.1667 46.7804 67.1667 43.5079C67.1667 40.2355 69.4721 37.9546 72.72 37.9546C74.4557 37.9546 75.918 38.6488 77.0834 39.9876L79.6617 37.6077C78.0255 35.6242 75.5217 34.5337 72.5221 34.5337C67.1177 34.5337 63.1016 38.2774 63.1016 43.5079C63.1016 48.7389 67.1177 52.4822 72.4976 52.4822L72.4971 52.4826Z" fill="white"/>
<path d="M87.9669 52.3836C92.2064 52.3836 95.2804 49.5329 95.2804 45.5164C95.2804 41.5003 92.2064 38.6492 87.9669 38.6492C83.7275 38.6492 80.6289 41.5003 80.6289 45.5164C80.6289 49.5325 83.7279 52.3836 87.9669 52.3836ZM87.9669 49.2106C86.0333 49.2106 84.546 47.8223 84.546 45.5168C84.546 43.211 86.0333 41.8231 87.9669 41.8231C89.9005 41.8231 91.3633 43.2114 91.3633 45.5168C91.3633 47.8223 89.9005 49.2106 87.9669 49.2106Z" fill="white"/>
<path d="M105.964 38.6494C104.154 38.6494 102.593 39.2691 101.551 40.4096V38.8478H97.8574V52.1855H101.725V45.5911C101.725 43.1368 103.063 41.9963 104.923 41.9963C106.633 41.9963 107.625 42.9879 107.625 45.1448V52.1855H111.492V44.5496C111.492 40.484 109.112 38.6494 105.964 38.6494H105.964Z" fill="white"/>
<path d="M119.476 52.3836C123.467 52.3836 125.773 50.6234 125.773 48.1442C125.773 42.8886 117.716 45.0946 117.716 42.8142C117.716 42.12 118.46 41.5747 120.195 41.5747C121.41 41.5747 122.723 41.8226 124.037 42.5663L125.326 39.8146C124.062 39.0709 122.029 38.6492 120.195 38.6492C116.303 38.6492 114.022 40.4343 114.022 42.9631C114.022 48.2931 122.079 46.0577 122.079 48.2436C122.079 48.9872 121.41 49.4585 119.625 49.4585C117.989 49.4585 116.179 48.9377 114.989 48.1695L113.7 50.9462C114.94 51.7643 117.221 52.384 119.476 52.384L119.476 52.3836Z" fill="white"/>
<path d="M134.499 52.3836C138.739 52.3836 141.813 49.5329 141.813 45.5164C141.813 41.5003 138.739 38.6492 134.499 38.6492C130.26 38.6492 127.161 41.5003 127.161 45.5164C127.161 49.5325 130.26 52.3836 134.499 52.3836ZM134.499 49.2106C132.566 49.2106 131.078 47.8223 131.078 45.5168C131.078 43.211 132.566 41.8231 134.499 41.8231C136.433 41.8231 137.896 43.2114 137.896 45.5168C137.896 47.8223 136.433 49.2106 134.499 49.2106Z" fill="white"/>
<path d="M148.084 40.608V38.8478H144.391V52.1855H148.258V45.8885C148.258 43.3352 149.671 42.1697 151.803 42.1697C152.1 42.1697 152.348 42.1943 152.671 42.2192V38.6494C150.613 38.6494 149.026 39.3186 148.084 40.608Z" fill="white"/>
<path d="M163.009 48.8138C162.588 49.1361 162.017 49.3096 161.447 49.3096C160.406 49.3096 159.786 48.6898 159.786 47.5494V42.12H163.108V39.1449H159.786V35.8975H155.919V39.1449H153.861V42.12H155.919V47.5989C155.919 50.7723 157.753 52.3836 160.902 52.3836C162.092 52.3836 163.257 52.1112 164.05 51.541L163.009 48.8138Z" fill="white"/>
<path d="M168.166 36.9885C169.603 36.9885 170.57 36.0465 170.57 34.7576C170.57 33.5676 169.604 32.675 168.166 32.675C166.728 32.675 165.761 33.6171 165.761 34.8316C165.761 36.0465 166.728 36.9885 168.166 36.9885ZM166.232 52.1853H170.099V38.8477H166.232V52.1853Z" fill="white"/>
<path d="M183.263 38.8474V45.4417C183.263 47.8961 181.974 49.0365 180.189 49.0365C178.478 49.0365 177.486 48.045 177.486 45.8136V38.8474H173.619V46.3838C173.619 50.4989 175.974 52.383 179.321 52.383C180.957 52.383 182.444 51.7633 183.461 50.5978V52.1846H187.13V38.8469H183.263V38.8474Z" fill="white"/>
<path d="M207.806 38.6494C205.798 38.6494 204.063 39.4675 202.997 40.8309C202.055 39.3681 200.468 38.6494 198.609 38.6494C196.898 38.6494 195.411 39.2446 194.419 40.3851V38.8478H190.726V52.1855H194.593V45.4921C194.593 43.1122 195.808 41.9967 197.518 41.9967C199.13 41.9967 200.047 42.9883 200.047 45.1452V52.1859H203.914V45.4925C203.914 43.1127 205.129 41.9972 206.864 41.9972C208.427 41.9972 209.393 42.9887 209.393 45.1457V52.1863H213.26V44.5505C213.26 40.4849 210.98 38.6503 207.806 38.6503L207.806 38.6494Z" fill="white"/>
<path d="M222.706 52.4826C227.664 52.4826 230.069 50.0038 230.069 47.1071C230.069 40.7361 219.979 42.9465 219.979 39.7441C219.979 38.6492 220.896 37.7566 223.275 37.7566C224.813 37.7566 226.473 38.2029 228.085 39.12L229.324 36.0705C227.713 35.054 225.481 34.5337 223.3 34.5337C218.366 34.5337 215.987 36.988 215.987 39.9425C215.987 46.388 226.077 44.157 226.077 47.4045C226.077 48.4661 225.11 49.2597 222.73 49.2597C220.647 49.2597 218.466 48.516 217.003 47.454L215.64 50.4741C217.176 51.6641 219.953 52.4822 222.705 52.4822L222.706 52.4826Z" fill="#ED2E38"/>
<path d="M245.786 52.185H250L242.24 34.8313H238.274L230.539 52.185H234.654L236.191 48.4663H244.248L245.785 52.185H245.786ZM237.481 45.4172L240.232 38.7734L242.984 45.4172H237.48H237.481Z" fill="#ED2E38"/>
</svg>
